<svg aria-hidden="true" style="position: absolute; width: 0; height: 0; overflow: hidden;" version="1.1" xmlns="http://www.w3.org/2000/svg" xmlns:xlink="http://www.w3.org/1999/xlink">
<defs>
<symbol id="icon-google-voice" viewBox="0 0 32 32">
<path fill="#fff" style="fill: var(--color1, #fff)" d="M1.333 16c0-10.667 4-14.667 14.667-14.667s14.667 4 14.667 14.667-4 14.667-14.667 14.667-14.667-4-14.667-14.667z"></path>
<path fill="#4285f4" style="fill: var(--color2, #4285f4)" d="M16 19.36c0.012 0 0.026 0 0.040 0 1.861 0 3.372-1.501 3.387-3.359v-7.841c-0.116-1.805-1.609-3.226-3.433-3.226s-3.317 1.42-3.433 3.216l-0.001 0.010v7.84c0.022 1.861 1.536 3.36 3.4 3.36 0.014 0 0.028-0 0.042-0l-0.002 0z"></path>
<path fill="#34a853" style="fill: var(--color3, #34a853)" d="M14.867 23.747h2.28v3.453h-2.28z"></path>
<path fill="#f4b400" style="fill: var(--color4, #f4b400)" d="M10.293 16h-2.293c0.002 2.175 0.9 4.139 2.345 5.545l0.002 0.002 1.653-1.547c-1.052-1.011-1.706-2.429-1.707-4v-0z"></path>
<path fill="#ea4335" style="fill: var(--color5, #ea4335)" d="M16 21.6c-0.003 0-0.007 0-0.011 0-1.549 0-2.955-0.61-3.991-1.602l0.002 0.002-1.653 1.533c1.444 1.426 3.429 2.307 5.62 2.307 0.012 0 0.023-0 0.035-0h-0.002c0.028 0 0.061 0.001 0.094 0.001 4.343 0 7.869-3.502 7.906-7.837l0-0.004h-2.293c-0.030 3.099-2.55 5.6-5.653 5.6-0.019 0-0.038-0-0.056-0l0.003 0z"></path>
</symbol>
<symbol id="icon-keyboard" viewBox="0 0 32 32">
<path d="M26.667 4h-21.333c-1.467 0-2.653 1.2-2.653 2.667l-0.013 13.333c0 1.467 1.2 2.667 2.667 2.667h21.333c1.467 0 2.667-1.2 2.667-2.667v-13.333c0-1.467-1.2-2.667-2.667-2.667zM26.667 20h-21.333v-13.333h21.333v13.333zM14.667 8h2.667v2.667h-2.667zM14.667 12h2.667v2.667h-2.667zM10.667 8h2.667v2.667h-2.667zM10.667 12h2.667v2.667h-2.667zM6.667 12h2.667v2.667h-2.667zM6.667 8h2.667v2.667h-2.667zM10.667 16h10.667v2.667h-10.667zM18.667 12h2.667v2.667h-2.667zM18.667 8h2.667v2.667h-2.667zM22.667 12h2.667v2.667h-2.667zM22.667 8h2.667v2.667h-2.667zM16 30.667l5.333-5.333h-10.667z"></path>
</symbol>
<symbol id="icon-search" viewBox="0 0 32 32">
<path d="M31.008 27.231l-7.58-6.447c-0.784-0.705-1.622-1.029-2.299-0.998 1.789-2.096 2.87-4.815 2.87-7.787 0-6.627-5.373-12-12-12s-12 5.373-12 12 5.373 12 12 12c2.972 0 5.691-1.081 7.787-2.87-0.031 0.677 0.293 1.515 0.998 2.299l6.447 7.58c1.104 1.226 2.907 1.33 4.007 0.23s0.997-2.903-0.23-4.007zM12 20c-4.418 0-8-3.582-8-8s3.582-8 8-8 8 3.582 8 8-3.582 8-8 8z"></path>
</symbol>
</defs>
</svg>
